<svg xmlns="http://www.w3.org/2000/svg" viewBox="0 0 128.89 29.97">
  <defs>
    <style>
      .a {
        fill: #fff;
      }
    </style>
  </defs>
  <g>
    <path class="a" d="M-220.54,1005.584h-11.251q-2.542-3.9-4.584-6.526t-5.226-6.586h-1.041v8.928a2.611,2.611,0,0,0,.261,1.221,2.01,2.01,0,0,0,1.041.841,6.015,6.015,0,0,0,1.07.32,12.664,12.664,0,0,0,1.412.24v1.562h-15.095v-1.562q.541-.039,1.532-.12a5.249,5.249,0,0,0,1.391-.24,1.849,1.849,0,0,0,1-.78,2.557,2.557,0,0,0,.28-1.262V981.48a2.623,2.623,0,0,0-.24-1.18,2.116,2.116,0,0,0-1.041-.862,7.209,7.209,0,0,0-1.5-.459c-.588-.121-1.061-.2-1.422-.241v-1.561h15.6v1.561q-.621.06-1.492.17a8.2,8.2,0,0,0-1.491.311,1.634,1.634,0,0,0-1.041.82,2.907,2.907,0,0,0-.261,1.241v9.57h.841q1.561-1.422,3.644-3.423t3.223-3.283a36.629,36.629,0,0,0,2.352-2.824,3.26,3.26,0,0,0,.751-1.8q0-.341-.721-.521a12.767,12.767,0,0,0-2.2-.26v-1.561H-222.4v1.561a15.511,15.511,0,0,0-3.76.811,9.676,9.676,0,0,0-3.02,1.912q-2.138,1.918-3.525,3.329t-3.565,3.608q1.918,2.345,4.618,5.74t5.379,6.622a12.823,12.823,0,0,0,1.559,1.571,7.7,7.7,0,0,0,1.938,1.211,5.193,5.193,0,0,0,1.139.341,7.74,7.74,0,0,0,1.1.139Z" transform="translate(253.953 -976.396)"/>
    <path class="a" d="M-187.54,1005.584h-15.475v-1.562a18.874,18.874,0,0,0,2.537-.39q1.46-.309,1.459-.771a2.465,2.465,0,0,0-.03-.36,2.532,2.532,0,0,0-.17-.54l-2.425-5.886h-9.806q-.339.82-.747,1.922t-.706,1.962a10.408,10.408,0,0,0-.449,1.621,6.024,6.024,0,0,0-.069.7q0,.64.969,1.091a10.529,10.529,0,0,0,3.231.65v1.562h-11.652v-1.562a10.707,10.707,0,0,0,1.492-.209,4.038,4.038,0,0,0,1.311-.471,5.119,5.119,0,0,0,1.392-1.181,6.243,6.243,0,0,0,.95-1.662q2.322-5.625,4.655-11.27t5.155-12.453h4q3.924,9.649,6.146,15.255t3.784,9.289a4.587,4.587,0,0,0,.66,1.091,4.262,4.262,0,0,0,1.141.931,4.513,4.513,0,0,0,1.3.48,9.076,9.076,0,0,0,1.341.2Zm-14.927-11.491-4.112-10.269-4.051,10.269Z" transform="translate(253.953 -976.396)"/>
    <path class="a" d="M-152.6,978.738q-.561.06-1.6.22a4.19,4.19,0,0,0-1.882.781,3.068,3.068,0,0,0-1.051,1.852,17.916,17.916,0,0,0-.31,3.853v20.3h-3.564l-17.7-21.961v13.333a16.267,16.267,0,0,0,.33,3.774,3.445,3.445,0,0,0,1.071,1.891,4.962,4.962,0,0,0,1.722.782,18.556,18.556,0,0,0,1.882.459v1.562H-185.91v-1.562a12.413,12.413,0,0,0,1.791-.29,4.707,4.707,0,0,0,1.692-.711,2.971,2.971,0,0,0,1.071-1.751,18.459,18.459,0,0,0,.291-3.934V983.883a5.735,5.735,0,0,0-.31-1.892,3.884,3.884,0,0,0-.972-1.531,5.245,5.245,0,0,0-1.611-1.071,9.962,9.962,0,0,0-2.072-.611v-1.6h10.693l15.532,19.21V985.642a15.693,15.693,0,0,0-.34-3.812,3.469,3.469,0,0,0-1.081-1.851,5.062,5.062,0,0,0-1.722-.791,17.76,17.76,0,0,0-1.842-.45v-1.561H-152.6Z" transform="translate(253.953 -976.396)"/>
    <path class="a" d="M-136.854,1006.365a17.447,17.447,0,0,1-4.855-.651,17.819,17.819,0,0,1-3.814-1.531l-1.381,1.4h-1.7l-.26-10.27h1.721a26.671,26.671,0,0,0,1.482,3.09,15.017,15.017,0,0,0,2.082,2.909,10.753,10.753,0,0,0,2.732,2.187,7.129,7.129,0,0,0,3.534.843,5.96,5.96,0,0,0,4.174-1.332,4.362,4.362,0,0,0,1.452-3.357,3.648,3.648,0,0,0-1.232-2.795,10.268,10.268,0,0,0-3.813-1.956q-1.681-.543-3.093-1.006t-2.653-.945a8.772,8.772,0,0,1-4.254-3.266,8.482,8.482,0,0,1-1.391-4.751,7.44,7.44,0,0,1,.72-3.2,8.52,8.52,0,0,1,2.1-2.756,10.363,10.363,0,0,1,3.384-1.864,13.511,13.511,0,0,1,4.484-.721,14.4,14.4,0,0,1,4.424.661,18.219,18.219,0,0,1,3.243,1.321l1.222-1.2h1.741l.16,9.689h-1.721q-.6-1.566-1.411-3.2a14.006,14.006,0,0,0-1.712-2.719,7.8,7.8,0,0,0-2.262-1.856,6.234,6.234,0,0,0-3-.693,5.112,5.112,0,0,0-3.534,1.224,3.9,3.9,0,0,0-1.371,3.027,3.6,3.6,0,0,0,1.191,2.789,10.325,10.325,0,0,0,3.714,1.9q1.48.5,3.023,1t2.742.962a9.879,9.879,0,0,1,4.415,3.1,7.829,7.829,0,0,1,1.511,4.9,7.89,7.89,0,0,1-.861,3.568,8.278,8.278,0,0,1-2.322,2.867,11.806,11.806,0,0,1-3.7,1.945A15.938,15.938,0,0,1-136.854,1006.365Z" transform="translate(253.953 -976.396)"/>
  </g>
</svg>
