<svg xmlns="http://www.w3.org/2000/svg" width="22.358" height="21.312" viewBox="0 0 22.358 21.312"><g transform="translate(0 -10.67)"><g transform="translate(14.333 26.761)"><g transform="translate(0 0)"><path d="M294.963,338.862a2.611,2.611,0,1,0,2.611,2.611A2.641,2.641,0,0,0,294.963,338.862Z" transform="translate(-292.352 -338.862)"/></g></g><g transform="translate(0 10.67)"><g transform="translate(0 0)"><path d="M21.538,14.31c-.05,0-.126-.025-.2-.025H5.523L5.272,12.6A2.248,2.248,0,0,0,3.037,10.67H1a1,1,0,1,0,0,2.008H3.037a.267.267,0,0,1,.251.226L4.845,23.5a2.752,2.752,0,0,0,2.711,2.335H18a2.79,2.79,0,0,0,2.711-2.209l1.632-8.158A.992.992,0,0,0,21.538,14.31Z" transform="translate(0 -10.67)"/></g></g><g transform="translate(5.446 26.761)"><g transform="translate(0 0)"><path d="M116.168,341.347a2.6,2.6,0,0,0-2.586-2.485,2.626,2.626,0,0,0-2.51,2.711,2.573,2.573,0,0,0,2.56,2.485h.05A2.605,2.605,0,0,0,116.168,341.347Z" transform="translate(-111.07 -338.862)"/></g></g></g></svg>